<svg xmlns="http://www.w3.org/2000/svg" viewBox="0 0 512 512">
  <defs>
    <linearGradient id="grad1" x1="0%" y1="0%" x2="100%" y2="100%">
      <stop offset="0%" style="stop-color:#FFD60A;stop-opacity:1" />
      <stop offset="100%" style="stop-color:#FFC000;stop-opacity:1" />
    </linearGradient>
    <filter id="shadow" x="-20%" y="-20%" width="140%" height="140%">
      <feDropShadow dx="0" dy="8" stdDeviation="15" flood-color="#0B1120" flood-opacity="0.2"/>
    </filter>
  </defs>
  
  <rect x="32" y="32" width="448" height="448" rx="112" fill="url(#grad1)"/>
  
  <g transform="translate(136, 116) scale(0.6)">
    <path fill="#0B1120" d="M241 127c51 0 97 16 131 42 7 6 9 16 3 23 -13 15 -27 30 -41 44 -5 5 -14 5 -19 0 -22 -18 -49 -27 -74 -27 -49 0 -63 17 -63 28 0 17 24 23 60 30 73 15 142 36 142 119 0 78 -64 126 -146 126 -64 0 -115 -21 -154 -48 -7 -5 -9 -14 -3 -22 14 -16 29 -31 43 -47 5 -5 13 -6 19 -1 27 20 60 32 93 32 42 0 63 -13 63 -28 0 -20 -25 -26 -66 -35 -70 -14 -135 -38 -135 -115 0 -81 69 -121 147 -121Z"/>
  </g>
</svg>
